<svg width="35" height="38" viewBox="0 0 35 38" fill="none" xmlns="http://www.w3.org/2000/svg">
<path fill-rule="evenodd" clip-rule="evenodd" d="M20.4306 13.0463C22.5292 11.8063 21.4947 7.5316 21.2582 6.68319C28.3345 11.2426 27.7727 25.4189 20.0664 29.5155L20.3419 30.1125C20.6079 30.6672 20.401 31.3198 19.9281 31.5809L19.7507 31.6788C19.2482 31.9398 18.6571 31.744 18.4206 31.2219L18.0023 30.3154C17.8579 30.3526 17.7116 30.3867 17.5634 30.4176L17.6226 31.1893C17.6817 31.8093 17.2679 32.3314 16.7359 32.3967H16.529C15.997 32.4619 15.524 32.0051 15.4649 31.4177L15.4048 30.6346C15.1955 30.6346 14.9904 30.6307 14.7895 30.623L14.726 31.4504C14.6669 32.0377 14.194 32.4946 13.662 32.4293L13.4551 32.3967C12.923 32.3314 12.5388 31.8093 12.5683 31.2219L12.6335 30.3727C12.4647 30.3382 12.2997 30.3006 12.1384 30.2599L11.7999 30.9935C11.5634 31.5156 10.9722 31.7114 10.4698 31.4504L10.2924 31.3525C9.81951 31.0914 9.61261 30.4388 9.87863 29.8841L10.0656 29.479C4.11493 26.3604 5.3859 18.0063 5.3859 18.0063C5.47457 18.8547 6.24306 20.5841 6.86376 20.4862C6.57344 15.4953 8.64016 14.5843 10.5017 13.7637C11.2934 13.4147 12.048 13.0821 12.5683 12.4589C16.9428 5.01899 14.7556 0.254818 14.7556 0.254818C20.0463 4.3011 20.4897 11.2516 20.4306 13.0463ZM15.1103 24.9241C15.1694 24.9241 15.1989 24.9241 15.2285 24.8915C15.3467 24.8262 15.3467 24.663 15.1989 24.4999L15.0807 24.4346C14.5643 24.1852 14.044 23.9315 13.5084 23.6703C12.5724 23.2138 11.5897 22.7346 10.4993 22.2157C10.4698 22.1831 10.4698 22.1831 10.4402 22.1831L10.4106 22.1504C10.3663 22.1341 10.3146 22.1096 10.2629 22.0852C10.2111 22.0607 10.1594 22.0362 10.1151 22.0199C10.1321 22.1138 10.1589 22.1969 10.1842 22.2754C10.2029 22.3333 10.2208 22.3887 10.2333 22.4441V22.4767C10.2333 22.4931 10.2407 22.5012 10.2481 22.5094C10.2555 22.5175 10.2629 22.5257 10.2629 22.542C10.2924 22.6399 10.322 22.7052 10.3515 22.7704C10.4106 22.8683 10.4402 22.9662 10.4698 23.0641L10.5584 23.2599C10.579 23.3282 10.614 23.3964 10.6433 23.4536C10.6561 23.4784 10.6677 23.5012 10.6767 23.521L10.7653 23.7167C10.7839 23.7782 10.8141 23.8268 10.8413 23.8706C10.8575 23.8966 10.8726 23.9209 10.8836 23.9452C10.9427 24.0104 10.9722 24.0431 11.0018 24.1083C11.0314 24.1409 11.0535 24.1736 11.0757 24.2062C11.0979 24.2388 11.12 24.2715 11.1496 24.3041L11.2678 24.4346L11.4156 24.5978C11.4362 24.6433 11.4712 24.6729 11.5005 24.6978C11.5132 24.7085 11.5249 24.7184 11.5338 24.7283C11.5634 24.7609 11.6225 24.8262 11.6816 24.8588C11.6964 24.8752 11.7186 24.8915 11.7407 24.9078C11.7629 24.9241 11.7851 24.9404 11.7998 24.9567L11.9772 25.0546C11.9955 25.0748 12.0137 25.0825 12.039 25.0931C12.0546 25.0997 12.0728 25.1074 12.0954 25.1199C12.125 25.1362 12.1545 25.1444 12.1841 25.1525C12.2136 25.1607 12.2432 25.1688 12.2728 25.1851C12.2886 25.1939 12.3023 25.2026 12.315 25.2107C12.3498 25.2329 12.3773 25.2504 12.4205 25.2504C12.4797 25.283 12.5683 25.3157 12.6274 25.3157C12.657 25.3157 12.6792 25.3238 12.7013 25.332C12.7235 25.3401 12.7457 25.3483 12.7752 25.3483C12.8639 25.3809 12.923 25.3809 13.0117 25.3809H13.0117H13.1299H13.4846H13.5142C13.5733 25.3646 13.6398 25.3565 13.7063 25.3483C13.7728 25.3401 13.8393 25.332 13.8984 25.3157C13.9132 25.3157 13.9354 25.3075 13.9575 25.2994C13.9797 25.2912 14.0019 25.283 14.0166 25.283C14.061 25.2667 14.1053 25.2586 14.1496 25.2504C14.194 25.2423 14.2383 25.2341 14.2827 25.2178C14.3122 25.2015 14.3418 25.1933 14.3713 25.1852C14.4009 25.177 14.4304 25.1688 14.46 25.1525L14.726 25.0546C14.7851 25.0546 14.8443 25.022 14.9034 24.9894C14.992 24.9894 15.0512 24.9567 15.1103 24.9241ZM21.6868 22.591C21.6942 22.5746 21.7016 22.5583 21.7016 22.542C21.7607 22.4115 21.7902 22.281 21.7902 22.2483C21.7199 22.2677 21.66 22.2987 21.6044 22.3275C21.5665 22.3471 21.5306 22.3656 21.4947 22.3789L21.4651 22.4115C21.4355 22.4441 21.4355 22.4441 21.406 22.4441C20.3157 22.963 19.3329 23.4422 18.397 23.8987C17.8613 24.1599 17.341 24.4136 16.8246 24.663L16.7064 24.7283C16.5881 24.7609 16.5881 24.9241 16.7064 24.9894C16.741 24.9894 16.7655 25.0006 16.7858 25.0098C16.8001 25.0164 16.8124 25.022 16.8246 25.022C16.8635 25.0363 16.8967 25.0443 16.9267 25.0516C16.9651 25.0609 16.9983 25.0689 17.0315 25.0873C17.0611 25.1036 17.0906 25.1117 17.1202 25.1199C17.1497 25.128 17.1793 25.1362 17.2088 25.1525L17.4749 25.2504C17.534 25.283 17.5931 25.3157 17.6522 25.3157C17.6965 25.332 17.7409 25.3401 17.7852 25.3483C17.8295 25.3565 17.8739 25.3646 17.9182 25.3809C17.933 25.3809 17.9552 25.3891 17.9773 25.3973C17.9995 25.4054 18.0217 25.4136 18.0364 25.4136C18.1547 25.4462 18.3025 25.4788 18.4207 25.4788H18.4502H18.8049H18.9232C18.9675 25.4788 19.0044 25.4707 19.0414 25.4625C19.0783 25.4544 19.1153 25.4462 19.1596 25.4462C19.1892 25.4462 19.2114 25.438 19.2335 25.4299C19.2557 25.4217 19.2779 25.4136 19.3074 25.4136C19.337 25.3973 19.3739 25.3891 19.4109 25.3809C19.4478 25.3728 19.4848 25.3646 19.5143 25.3483C19.5439 25.332 19.566 25.3238 19.5882 25.3157C19.6104 25.3075 19.6325 25.2994 19.6621 25.283C19.7212 25.283 19.7803 25.2504 19.8394 25.2178C19.869 25.2178 19.9281 25.1852 19.9577 25.1525L20.135 25.0546C20.1498 25.0383 20.172 25.022 20.1941 25.0057C20.2163 24.9894 20.2385 24.973 20.2532 24.9567C20.2828 24.9404 20.305 24.9159 20.3271 24.8915C20.3493 24.867 20.3715 24.8425 20.401 24.8262C20.4216 24.7807 20.4566 24.7511 20.4859 24.7262C20.4987 24.7154 20.5103 24.7056 20.5193 24.6957L20.6671 24.5325L20.7853 24.402C20.8444 24.3367 20.9035 24.2715 20.9331 24.2062C20.9922 24.1409 21.0217 24.1083 21.0513 24.0431C21.0699 23.9816 21.1001 23.933 21.1273 23.8892C21.1434 23.8632 21.1585 23.8389 21.1695 23.8146L21.2582 23.6188C21.273 23.5699 21.2951 23.5291 21.3173 23.4883C21.3395 23.4475 21.3617 23.4067 21.3764 23.3578L21.4651 23.162C21.5242 23.0641 21.5538 22.9662 21.5833 22.8683L21.5833 22.8683C21.5981 22.8357 21.6129 22.7949 21.6277 22.7541C21.6424 22.7133 21.6572 22.6725 21.672 22.6399C21.672 22.6236 21.6794 22.6073 21.6868 22.591ZM12.2728 5.83481C12.2728 5.83481 12.3319 8.47794 10.4402 10.1748C8.54855 11.8716 9.49439 13.3726 9.49439 13.3726C9.49439 13.3726 8.57811 12.2632 8.63722 10.1095C8.68179 8.46122 10.7256 6.9984 11.7288 6.28039L11.7288 6.28039C12.0562 6.04603 12.2728 5.89102 12.2728 5.83481Z" fill="#ffffff"/>
<path d="M27.7399 34.6324C28.1505 34.6268 28.5361 34.4475 28.8259 34.1276C29.4352 33.4549 29.4353 32.3601 28.826 31.6874C28.2167 31.0147 27.225 31.0146 26.6156 31.6874C26.3947 31.9311 26.0368 31.9311 25.8159 31.6874L23.7143 29.1612C23.1512 29.4598 22.7295 29.7687 22.1967 30.2102H22.088V30.4464L24.514 33.1247C24.7348 33.3686 24.7348 33.7639 24.514 34.0076C24.2187 34.3336 24.0562 34.7668 24.0562 35.2277C24.0562 35.6886 24.2187 36.1219 24.514 36.4478C24.8091 36.7738 25.2016 36.9532 25.6191 36.9532C26.0366 36.9532 26.429 36.7738 26.7243 36.4478C27.0141 36.1279 27.1764 35.7021 27.1815 35.249C27.1851 34.9102 27.433 34.6365 27.7399 34.6324Z" fill="#ffffff"/>
<path d="M1.66305 8.79806C1.25246 8.80362 0.866816 8.98291 0.577071 9.30279C-0.0322758 9.97557 -0.0323884 11.0703 0.576958 11.743C1.18631 12.4157 2.17796 12.4158 2.78731 11.743C3.00824 11.4993 3.36618 11.4993 3.58705 11.743L5.68866 14.2693C6.25175 13.9707 6.6735 13.6617 7.20626 13.2202L7.315 13.2202L7.315 12.984L4.88898 10.3057C4.66817 10.0618 4.66817 9.66655 4.88898 9.42277C5.18421 9.09684 5.34678 8.66359 5.34678 8.20269C5.34678 7.74179 5.18421 7.30854 4.88898 6.9826C4.59381 6.65667 4.20132 6.47719 3.78383 6.47719C3.36635 6.47719 2.97391 6.65667 2.67868 6.9826C2.38888 7.30254 2.22654 7.7283 2.2215 8.1814C2.21783 8.52026 1.96993 8.79394 1.66305 8.79806Z" fill="#ffffff"/>
<path d="M2.419 34.6191C2.36602 35.0686 2.47236 35.5154 2.71831 35.8772C3.2356 36.6382 4.21725 36.7928 4.90651 36.2218C5.59577 35.6508 5.73581 34.567 5.21852 33.806C5.03116 33.5301 5.08168 33.1389 5.33141 32.9319L7.89342 30.9916C7.70515 30.334 7.48761 29.8295 7.16695 29.1849L7.1823 29.066L6.97047 29.0327L4.22629 31.3061C3.97646 31.513 3.62199 31.4572 3.43456 31.1815C3.18396 30.8128 2.8184 30.574 2.4051 30.5089C1.99179 30.4438 1.58034 30.5604 1.24639 30.837C0.912451 31.1136 0.696106 31.5173 0.637175 31.9736C0.578244 32.4299 0.683792 32.8841 0.934392 33.2528C1.18038 33.6147 1.53926 33.8522 1.94485 33.9217C2.2482 33.9735 2.45862 34.2831 2.419 34.6191Z" fill="#ffffff"/>
<path d="M32.2954 8.93594C32.3484 8.48641 32.2421 8.03961 31.9961 7.67778C31.4788 6.91683 30.4972 6.76218 29.8079 7.33321C29.1186 7.90423 28.9786 8.98805 29.4959 9.749C29.6833 10.0249 29.6327 10.4161 29.383 10.6231L26.821 12.5634C27.0093 13.221 27.2268 13.7256 27.5475 14.3702L27.5321 14.489L27.7439 14.5223L30.4881 12.2489C30.738 12.042 31.0924 12.0978 31.2799 12.3735C31.5305 12.7422 31.896 12.981 32.3093 13.0461C32.7226 13.1112 33.1341 12.9946 33.468 12.718C33.802 12.4414 34.0183 12.0377 34.0772 11.5815C34.1362 11.1252 34.0306 10.6709 33.78 10.3022C33.534 9.94034 33.1752 9.70281 32.7696 9.63335C32.4662 9.5815 32.2558 9.27193 32.2954 8.93594Z" fill="#ffffff"/>
</svg>
