<svg width="22" height="24" viewBox="0 0 22 24" fill="none" xmlns="http://www.w3.org/2000/svg">
<path d="M16.5649 17.9274C19.2923 14.5831 19.053 9.42557 16.0306 6.40774C13.0082 3.3899 8.34705 3.65455 5.61972 6.99884C2.89239 10.3431 3.13163 15.5006 6.15407 18.5185C9.17651 21.5363 13.8376 21.2717 16.5649 17.9274Z" fill="#FA5926"/>
<path d="M8.4241 10.0802C8.4721 9.33621 8.7561 8.75621 9.2761 8.34021C9.8041 7.92421 10.4761 7.71621 11.2921 7.71621C11.8521 7.71621 12.3361 7.81621 12.7441 8.01621C13.1521 8.21621 13.4601 8.48821 13.6681 8.83221C13.8761 9.17621 13.9801 9.56421 13.9801 9.99621C13.9801 10.4922 13.8481 10.9162 13.5841 11.2682C13.3201 11.6202 13.0041 11.8562 12.6361 11.9762L12.6361 12.0242C13.1081 12.1682 13.4761 12.4322 13.7401 12.8162C14.0041 13.1922 14.1361 13.6762 14.1361 14.2682C14.1361 14.7402 14.0281 15.1602 13.8121 15.5282C13.5961 15.8962 13.2761 16.1882 12.8521 16.4042C12.4281 16.6122 11.9201 16.7162 11.3281 16.7162C10.4641 16.7162 9.7521 16.4962 9.1921 16.0562C8.6401 15.6082 8.3441 14.9682 8.3041 14.1362L9.6241 14.1362C9.6561 14.5602 9.8201 14.9082 10.1161 15.1802C10.4121 15.4442 10.8121 15.5762 11.3161 15.5762C11.8041 15.5762 12.1801 15.4442 12.4441 15.1802C12.7081 14.9082 12.8401 14.5602 12.8401 14.1362C12.8401 13.5762 12.6601 13.1802 12.3001 12.9482C11.9481 12.7082 11.4041 12.5882 10.6681 12.5882L10.3561 12.5882L10.3561 11.4602L10.6801 11.4602C11.3281 11.4522 11.8201 11.3442 12.1561 11.1362C12.5001 10.9282 12.6721 10.6002 12.6721 10.1522C12.6721 9.76821 12.5481 9.46421 12.3001 9.24021C12.0521 9.00821 11.7001 8.89221 11.2441 8.89221C10.7961 8.89221 10.4481 9.00821 10.2001 9.24021C9.9521 9.46421 9.8041 9.74421 9.7561 10.0802L8.4241 10.0802Z" fill="#FFFAF3"/>
</svg>
