<svg width="21" height="21" viewBox="0 0 21 21" fill="none" xmlns="http://www.w3.org/2000/svg">
<path d="M15.5434 15.3307C18.2096 12.3694 17.9757 7.8024 15.021 5.13012C12.0663 2.45784 7.50966 2.69218 4.84345 5.65353C2.17725 8.61489 2.41113 13.1818 5.36583 15.8541C8.32053 18.5264 12.8772 18.2921 15.5434 15.3307Z" fill="#FA5926"/>
<path d="M7.84899 8.52718C7.89149 7.86837 8.14297 7.35478 8.60343 6.98641C9.07097 6.61805 9.66603 6.43386 10.3886 6.43386C10.8845 6.43386 11.3131 6.52241 11.6743 6.69951C12.0356 6.87661 12.3083 7.11746 12.4925 7.42208C12.6767 7.72669 12.7688 8.07026 12.7688 8.45279C12.7688 8.892 12.6519 9.26745 12.4182 9.57914C12.1844 9.89084 11.9046 10.0998 11.5787 10.2061L11.5787 10.2486C11.9967 10.3761 12.3225 10.6099 12.5563 10.9499C12.7901 11.2828 12.9069 11.7114 12.9069 12.2356C12.9069 12.6536 12.8113 13.0255 12.62 13.3514C12.4288 13.6772 12.1454 13.9358 11.77 14.1271C11.3945 14.3112 10.9447 14.4033 10.4205 14.4033C9.6554 14.4033 9.02493 14.2085 8.52905 13.8189C8.04026 13.4222 7.77815 12.8555 7.74273 12.1187L8.91158 12.1187C8.93992 12.4942 9.08514 12.8024 9.34725 13.0432C9.60936 13.277 9.96355 13.3939 10.4098 13.3939C10.842 13.3939 11.1749 13.277 11.4087 13.0432C11.6425 12.8024 11.7593 12.4942 11.7593 12.1187C11.7593 11.6229 11.6 11.2722 11.2812 11.0668C10.9695 10.8543 10.4878 10.748 9.83604 10.748L9.55977 10.748L9.55977 9.74916L9.84667 9.74916C10.4205 9.74208 10.8561 9.64644 11.1537 9.46226C11.4583 9.27808 11.6106 8.98763 11.6106 8.59093C11.6106 8.2509 11.5008 7.98171 11.2812 7.78336C11.0616 7.57792 10.7499 7.47521 10.3461 7.47521C9.94939 7.47521 9.64123 7.57792 9.42163 7.78336C9.20203 7.98171 9.07097 8.22965 9.02847 8.52718L7.84899 8.52718Z" fill="#FFFAF3"/>
</svg>
