<svg width="21" height="21" viewBox="0 0 21 21" fill="none" xmlns="http://www.w3.org/2000/svg">
<path d="M16.1452 15.5943C18.8114 12.6329 18.5775 8.06595 15.6228 5.39367C12.6681 2.72139 8.11147 2.95573 5.44526 5.91708C2.77906 8.87844 3.01294 13.4454 5.96764 16.1177C8.92234 18.79 13.479 18.5556 16.1452 15.5943Z" fill="#FA5926"/>
<path d="M8.4508 8.79071C8.4933 8.1319 8.74478 7.61831 9.20524 7.24995C9.67278 6.88158 10.2678 6.6974 10.9904 6.6974C11.4863 6.6974 11.9149 6.78595 12.2761 6.96305C12.6374 7.14014 12.9102 7.381 13.0943 7.68561C13.2785 7.99022 13.3706 8.33379 13.3706 8.71633C13.3706 9.15553 13.2537 9.53098 13.02 9.84268C12.7862 10.1544 12.5064 10.3634 12.1805 10.4696L12.1805 10.5121C12.5985 10.6396 12.9243 10.8734 13.1581 11.2134C13.3919 11.5464 13.5088 11.975 13.5088 12.4992C13.5088 12.9171 13.4131 13.289 13.2218 13.6149C13.0306 13.9408 12.7472 14.1993 12.3718 14.3906C11.9963 14.5748 11.5465 14.6669 11.0223 14.6669C10.2572 14.6669 9.62674 14.4721 9.13086 14.0824C8.64206 13.6857 8.37996 13.119 8.34454 12.3823L9.51339 12.3823C9.54173 12.7577 9.68695 13.0659 9.94906 13.3067C10.2112 13.5405 10.5654 13.6574 11.0117 13.6574C11.4438 13.6574 11.7767 13.5405 12.0105 13.3067C12.2443 13.0659 12.3611 12.7577 12.3611 12.3823C12.3611 11.8864 12.2018 11.5357 11.883 11.3303C11.5713 11.1178 11.0896 11.0115 10.4378 11.0115L10.1616 11.0115L10.1616 10.0127L10.4485 10.0127C11.0223 10.0056 11.4579 9.90998 11.7555 9.72579C12.0601 9.54161 12.2124 9.25117 12.2124 8.85447C12.2124 8.51443 12.1026 8.24524 11.883 8.04689C11.6634 7.84146 11.3517 7.73874 10.9479 7.73874C10.5512 7.73874 10.243 7.84146 10.0234 8.04689C9.80383 8.24524 9.67278 8.49318 9.63028 8.79071L8.4508 8.79071Z" fill="#FFFAF3"/>
</svg>
